<svg width="300" height="95" viewBox="0 0 300 95" fill="none" xmlns="http://www.w3.org/2000/svg">
<g clipPath="url(#clip0_1_9)">
<g clipPath="url(#clip1_1_9)">
<g clipPath="url(#clip2_1_9)">
<g clipPath="url(#clip3_1_9)">
<g clipPath="url(#clip4_1_9)">
<path d="M300 0H0V95H300V0Z" fill="#FFCBA3"/>
<g clipPath="url(#clip5_1_9)">
<path d="M34.4488 34.0252C37.0135 34.0252 39.1695 35.1456 40.9167 37.3864C42.6559 39.6272 43.5255 42.6483 43.5255 46.4496C43.5255 51.7715 42.155 56.081 39.4139 59.3782C36.6649 62.6834 33.2466 64.3359 29.159 64.3359C28.3175 64.3359 27.3757 64.2759 26.3338 64.1559L26.6344 75.6199L18.3992 77.1205L19.1806 49.7508H19.2407C19.0804 44.3889 18.6396 39.5872 17.9183 35.3457L25.1917 33.7851C25.4321 35.9059 25.6325 38.0066 25.7928 40.0874C25.873 39.8873 26.2857 39.3351 27.0311 38.4308C27.7685 37.5345 28.8585 36.5741 30.3011 35.5498C31.7438 34.5334 33.1263 34.0252 34.4488 34.0252ZM32.1045 41.828C29.9805 41.828 27.9167 42.4082 25.913 43.5686V48.7304L26.1535 57.3135C28.3175 57.6736 29.9605 57.8536 31.0826 57.8536C34.9297 57.8536 36.8532 55.1807 36.8532 49.8348C36.8532 44.4969 35.2703 41.828 32.1045 41.828ZM66.0671 49.1506C66.0671 46.3896 65.8267 44.5489 65.3458 43.6286C64.8649 42.7083 63.7428 42.2481 61.9796 42.2481C60.2163 42.2481 58.2126 42.9484 55.9685 44.3489V48.7304L56.6297 62.8354L48.5147 64.3359L49.2361 49.7508L48.5147 19.38L56.7499 17.8795L55.9685 33.425V40.4475C56.5696 39.6472 57.2509 38.8669 58.0123 38.1067C58.7737 37.3464 59.9558 36.4861 61.5588 35.5258C63.1618 34.5654 64.8729 34.0852 66.6923 34.0852C68.5196 34.0852 70.0545 34.7935 71.2968 36.21C72.5391 37.6345 73.1602 39.5672 73.1602 42.008L72.7995 48.7304L73.4608 63.1355L65.3458 64.636L66.0671 49.1506ZM78.2696 51.7915C78.2696 46.6697 79.6522 42.3282 82.4173 38.7669C85.1744 35.2056 88.4083 33.425 92.1192 33.425C95.822 33.425 98.7073 34.6254 100.775 37.0263C102.843 39.4271 103.877 42.6083 103.877 46.5697C103.877 51.8515 102.542 56.2411 99.8735 59.7383C97.2046 63.2436 93.8504 64.9962 89.8109 64.9962C86.4848 64.9962 83.7277 63.7437 81.5397 61.2388C79.3596 58.742 78.2696 55.5928 78.2696 51.7915ZM97.1445 49.6908C97.1445 43.8887 95.1608 40.9877 91.1935 40.9877C87.0659 40.9877 85.0021 43.7086 85.0021 49.1506C85.0021 51.9916 85.5831 54.2124 86.7453 55.8129C87.9074 57.4135 89.4382 58.2138 91.3378 58.2138C93.2453 58.2138 94.6879 57.4815 95.6657 56.017C96.6516 54.5605 97.1445 52.4517 97.1445 49.6908ZM107.892 35.2857H111.379V28.7434L119.494 27.1828L118.712 35.2857H125.986L125.324 40.2074H118.472L118.171 52.7518C118.171 54.6325 118.352 55.881 118.712 56.4972C119.073 57.1214 119.734 57.4335 120.696 57.4335C121.658 57.4335 122.94 57.2134 124.543 56.7733L124.904 61.0348C122.259 63.2355 119.935 64.3359 117.931 64.3359C115.927 64.3359 114.284 63.6037 113.002 62.1392C111.719 60.6826 111.078 58.774 111.078 56.4131L111.439 49.6908L111.379 40.2074H107.231L107.892 35.2857ZM128.57 51.7915C128.57 46.6697 129.953 42.3282 132.718 38.7669C135.483 35.2056 138.721 33.425 142.432 33.425C146.135 33.425 149.02 34.6254 151.088 37.0263C153.148 39.4271 154.178 42.6083 154.178 46.5697C154.178 51.8515 152.847 56.2411 150.186 59.7383C147.517 63.2436 144.159 64.9962 140.112 64.9962C136.786 64.9962 134.033 63.7437 131.853 61.2388C129.664 58.742 128.57 55.5928 128.57 51.7915ZM147.445 49.6908C147.445 43.8887 145.462 40.9877 141.494 40.9877C137.367 40.9877 135.303 43.7086 135.303 49.1506C135.303 51.9916 135.884 54.2124 137.046 55.8129C138.208 57.4135 139.743 58.2138 141.651 58.2138C143.55 58.2138 144.993 57.4815 145.979 56.017C146.956 54.5605 147.445 52.4517 147.445 49.6908ZM168.424 58.754C170.508 58.754 171.55 57.8336 171.55 55.993C171.55 55.3528 171.097 54.7526 170.191 54.1924C169.294 53.6322 168.192 53.072 166.885 52.5118C165.587 51.9516 164.284 51.3193 162.978 50.6151C161.68 49.9188 160.578 48.9505 159.672 47.7101C158.774 46.4696 158.325 45.0491 158.325 43.4486C158.325 40.7676 159.508 38.4268 161.872 36.4261C164.236 34.4254 166.961 33.425 170.047 33.425C171.49 33.425 172.9 33.5931 174.279 33.9292C175.665 34.2733 177 34.8055 178.282 35.5258L174.255 42.8483C173.974 42.6083 173.614 42.3082 173.173 41.948C172.732 41.5879 171.898 41.1157 170.672 40.5315C169.454 39.9553 168.372 39.6672 167.426 39.6672C166.488 39.6672 165.767 39.8753 165.262 40.2914C164.765 40.7156 164.517 41.2998 164.517 42.0441C164.517 42.7803 165.206 43.5166 166.585 44.2528C167.971 44.9971 169.486 45.6773 171.129 46.2936C172.772 46.9178 174.283 47.9381 175.661 49.3546C177.048 50.7791 177.741 52.4717 177.741 54.4324C177.741 57.2334 176.587 59.6943 174.279 61.815C171.979 63.9358 169.326 64.9962 166.32 64.9962C164.397 64.9962 162.601 64.576 160.934 63.7357C159.275 62.8954 158.085 62.0551 157.364 61.2148L156.282 59.9544L161.03 54.4324C161.271 54.7526 161.611 55.1527 162.052 55.6329C162.493 56.113 163.363 56.7533 164.661 57.5535C165.967 58.3538 167.222 58.754 168.424 58.754ZM181.877 35.2857H185.363V28.7434L193.478 27.1828L192.697 35.2857H199.982L199.309 40.2074H192.468L192.168 52.7518C192.168 54.6325 192.344 55.881 192.697 56.4972C193.065 57.1214 193.727 57.4335 194.68 57.4335C195.65 57.4335 196.937 57.2134 198.54 56.7733L198.888 61.0348C196.251 63.2355 193.931 64.3359 191.927 64.3359C189.924 64.3359 188.277 63.6037 186.986 62.1392C185.704 60.6826 185.063 58.774 185.063 56.4131L185.435 49.6908L185.363 40.2074H181.228L181.877 35.2857ZM202.555 51.7915C202.555 46.6697 203.938 42.3282 206.703 38.7669C209.468 35.2056 212.706 33.425 216.417 33.425C220.119 33.425 223.005 34.6254 225.073 37.0263C227.132 39.4271 228.162 42.6083 228.162 46.5697C228.162 51.8515 226.832 56.2411 224.171 59.7383C221.502 63.2436 218.144 64.9962 214.096 64.9962C210.77 64.9962 208.017 63.7437 205.837 61.2388C203.649 58.742 202.555 55.5928 202.555 51.7915ZM221.43 49.6908C221.43 43.8887 219.446 40.9877 215.479 40.9877C211.351 40.9877 209.287 43.7086 209.287 49.1506C209.287 51.9916 209.868 54.2124 211.031 55.8129C212.193 57.4135 213.728 58.2138 215.635 58.2138C217.535 58.2138 218.977 57.4815 219.963 56.017C220.941 54.5605 221.43 52.4517 221.43 49.6908ZM243.671 41.2278C241.908 41.2278 240.545 41.856 239.583 43.1124C238.622 44.3769 238.141 46.3096 238.141 48.9105C238.141 51.5114 238.634 53.6001 239.619 55.1767C240.597 56.7613 242.028 57.5535 243.911 57.5535C244.873 57.5535 245.815 57.2534 246.737 56.6532C247.658 56.053 248.36 55.4528 248.84 54.8526L249.502 53.8922L252.507 57.0134C252.387 57.2134 252.235 57.4935 252.05 57.8536C251.874 58.2138 251.437 58.854 250.74 59.7743C250.035 60.6947 249.293 61.5029 248.516 62.1992C247.73 62.9034 246.716 63.5437 245.474 64.1199C244.232 64.7041 242.929 64.9962 241.567 64.9962C238.561 64.9962 236.117 63.7757 234.233 61.3349C232.35 58.894 231.408 55.7129 231.408 51.7915C231.408 46.9098 232.831 42.6283 235.676 38.947C238.521 35.2657 241.847 33.425 245.654 33.425C246.817 33.425 247.979 33.5931 249.141 33.9292C250.303 34.2733 251.485 34.8055 252.687 35.5258L248.48 42.9084C247.037 41.788 245.434 41.2278 243.671 41.2278ZM282.082 60.3745L275.229 64.9362L263.928 48.3103V48.7304L264.589 62.8354L256.474 64.3359L257.196 49.7508L256.474 19.38L264.71 17.8795L263.928 46.8698L275.95 33.7251L281.601 37.5665L271.081 47.41L282.082 60.3745Z" fill="black"/>
</g>
</g>
</g>
</g>
</g>
</g>
<defs>
<clipPath id="clip0_1_9">
<rect width="300" height="95" fill="white"/>
</clipPath>
<clipPath id="clip1_1_9">
<rect width="300" height="95" fill="white"/>
</clipPath>
<clipPath id="clip2_1_9">
<rect width="300" height="95" fill="white"/>
</clipPath>
<clipPath id="clip3_1_9">
<rect width="300" height="95" fill="white"/>
</clipPath>
<clipPath id="clip4_1_9">
<rect width="300" height="95" fill="white"/>
</clipPath>
<clipPath id="clip5_1_9">
<rect width="264.188" height="59.2409" fill="white" transform="translate(17.9062 17.8795)"/>
</clipPath>
</defs>
</svg>
